<?xml version="1.0" encoding="utf-8"?>
<!-- Generator: Adobe Illustrator 21.1.0, SVG Export Plug-In . SVG Version: 6.00 Build 0)  -->
<svg version="1.1" id="Ebene_1" xmlns="http://www.w3.org/2000/svg" xmlns:xlink="http://www.w3.org/1999/xlink" x="0px" y="0px"
	 viewBox="0 0 8.5 14.2" style="enable-background:new 0 0 8.5 14.2;" xml:space="preserve">
<style type="text/css">
	.st0{display:none;opacity:0.3;fill:#004F9F;}
	.st1{display:none;opacity:0.3;fill:#004F9F;stroke:#8C9CD0;stroke-width:0.25;stroke-miterlimit:10;}
	.st2{opacity:0.5;fill:#004F9F;stroke:#004F9F;stroke-width:0.25;stroke-miterlimit:10;}
	.st3{fill:url(#SVGID_1_);}
	.st4{display:none;fill:url(#SVGID_2_);stroke:#0051A0;stroke-width:0.5;stroke-miterlimit:10;}
	.st5{fill:none;stroke:#004F9F;stroke-width:0.5;stroke-miterlimit:10;}
</style>
<path class="st0" d="M6.8,7L6.8,7c0.7-1.4,0.1-3.2-1.3-3.9S2.3,3,1.6,4.4c-0.4,0.8-0.4,1.7,0,2.5l0,0C1.7,7.1,1.8,7.3,2,7.5l2.3,3.7
	l2.3-3.7C6.6,7.4,6.7,7.2,6.8,7L6.8,7z"/>
<path class="st1" d="M4.3,11.4L4.3,11.4L1.9,7.6C1,6.2,1.1,4.4,2.4,3.4s3.2-0.8,4.2,0.5C7,4.4,7.2,5.1,7.2,5.7
	c0,0.4-0.1,0.9-0.2,1.2l0,0L6.9,7.1C6.8,7.4,6.7,7.4,6.6,7.6L4.3,11.4z M4.3,2.9c-1.6,0-2.8,1.3-2.8,2.8c0,0.6,0.2,1.3,0.6,1.8
	l2.2,3.6l2.2-3.6C6.6,7.4,6.7,7.2,6.8,7l0,0C7,6.6,7.1,6.2,7.1,5.8C7.1,4.2,5.9,3,4.3,2.9L4.3,2.9z"/>
<path class="st2" d="M7.2,5.7c0,1.6-2.9,5.9-2.9,5.9S1.3,7.3,1.3,5.7s1.3-2.9,2.9-2.9S7.2,4.1,7.2,5.7z"/>
<linearGradient id="SVGID_1_" gradientUnits="userSpaceOnUse" x1="3.356" y1="-993.8173" x2="5.196" y2="-990.6472" gradientTransform="matrix(1 0 0 -1 0 -986.5)">
	<stop  offset="6.000000e-02" style="stop-color:#FFFFFF"/>
	<stop  offset="0.26" style="stop-color:#F4F2F1"/>
	<stop  offset="0.63" style="stop-color:#DAD5D1"/>
	<stop  offset="1" style="stop-color:#B8B1A8"/>
</linearGradient>
<circle class="st3" cx="4.3" cy="5.7" r="1.8"/>
<radialGradient id="SVGID_2_" cx="4.2603" cy="-992.1274" r="1.617" gradientTransform="matrix(1 0 0 -1 0 -986.5)" gradientUnits="userSpaceOnUse">
	<stop  offset="0.28" style="stop-color:#7E8387"/>
	<stop  offset="0.73" style="stop-color:#7E8387"/>
</radialGradient>
<path class="st4" d="M4.3,7.3c-0.9,0-1.6-0.8-1.6-1.6s0.8-1.6,1.6-1.6s1.6,0.8,1.6,1.6S5.2,7.3,4.3,7.3z M4.3,4.2
	c-0.8,0-1.4,0.7-1.4,1.4S3.5,7,4.3,7s1.4-0.7,1.4-1.4C5.7,4.8,5.1,4.2,4.3,4.2z"/>
<circle class="st5" cx="4.3" cy="5.8" r="1.7"/>
<g>
</g>
<g>
</g>
<g>
</g>
<g>
</g>
<g>
</g>
<g>
</g>
</svg>
